<svg id="Layer_1" data-name="Layer 1" xmlns="http://www.w3.org/2000/svg" viewBox="0 0 520 70"><title>Untitled-1</title><polygon points="60.14 61.67 55.85 61.67 80.97 8.33 85.35 8.33 60.14 61.67" fill="#f15822"/><polygon points="106.25 61.67 110.61 61.67 85.36 8.33 80.98 8.33 106.25 61.67" fill="#f15822"/><polygon points="91.92 54.25 91.94 54.3 84.66 51.53 83.23 50.98 69.03 56.37 66.56 61.67 83.21 55.34 99.87 61.67 97.38 56.33 91.92 54.25" fill="#f15822"/><polygon points="83.23 50.98 84.66 51.53 83.21 50.97 81.76 51.53 74.49 54.3 83.21 35.52 91.94 54.3 91.92 54.25 97.38 56.33 99.87 61.67 83.21 25.85 66.56 61.67 69.03 56.37 83.23 50.98" fill="#f15822"/><path d="M363.1,48.07l1.65-22.68h3.46l3,8.28,3.63,10.56c1.3-3.67,2.58-7.2,3.84-10.56l3.12-8.28h3.47l2,22.68h-2.72l-.77-9L383,29.06q-1.79,5-3.67,10.06l-3.16,8.45h-2.59l-3-8.45-3.43-9.86c0,.88-.21,4.16-.64,9.86l-.64,9Z" fill="#231f20"/><path d="M396,36.34V34.09a8.1,8.1,0,0,1,4.28-1c3.64,0,5.46,1.84,5.46,5.54v9.3h-2.23V46.08c-.74,1.23-2.09,1.85-4.05,1.85a4.5,4.5,0,0,1-3.27-1.2,4,4,0,0,1-1.24-3,3.79,3.79,0,0,1,1.58-3.24,7.22,7.22,0,0,1,4.33-1.16h2.62v-.74a3.8,3.8,0,0,0-.77-2.58,3.32,3.32,0,0,0-2.6-.87A7.1,7.1,0,0,0,396,36.34Zm7.48,4.77H401a4.44,4.44,0,0,0-2.74.71,2.2,2.2,0,0,0-.91,1.8,2.3,2.3,0,0,0,.71,1.76,3,3,0,0,0,2.08.67,3.42,3.42,0,0,0,2.46-.87,2.93,2.93,0,0,0,.91-2.22Z" fill="#231f20"/><path d="M415.57,33v2.43a5,5,0,0,1,4.5-2.43,5.43,5.43,0,0,1,4.53,2.1,8.27,8.27,0,0,1,1.65,5.26,8.44,8.44,0,0,1-1.73,5.48A5.55,5.55,0,0,1,420,48a5,5,0,0,1-4.44-2.43V53.4h-2.24V33Zm4.15,12.91a3.71,3.71,0,0,0,3-1.44,6.41,6.41,0,0,0,1.17-4.11,6.05,6.05,0,0,0-1.14-3.84,3.52,3.52,0,0,0-2.89-1.46,4.13,4.13,0,0,0-3,1.27,5.73,5.73,0,0,0-1.27,4.17,5.64,5.64,0,0,0,1.29,4.09A3.92,3.92,0,0,0,419.72,45.92Z" fill="#231f20"/><path d="M442.4,33.59v2.19a7.12,7.12,0,0,0-3.68-.82,2.89,2.89,0,0,0-1.85.54,1.7,1.7,0,0,0-.69,1.39,1.92,1.92,0,0,0,.21.92,2.12,2.12,0,0,0,.8.77,7.37,7.37,0,0,0,.87.51l1.21.54a9.58,9.58,0,0,1,2.92,1.73A3.33,3.33,0,0,1,443.24,44a3.72,3.72,0,0,1-1.32,3,5.51,5.51,0,0,1-3.64,1.11,9,9,0,0,1-4.35-.91V44.92a8.17,8.17,0,0,0,4.21,1.16,3.38,3.38,0,0,0,2-.52,1.69,1.69,0,0,0,.7-1.43,2,2,0,0,0-.77-1.64,12.82,12.82,0,0,0-2.59-1.31,8,8,0,0,1-2.67-1.6,3.44,3.44,0,0,1-1-2.6A3.57,3.57,0,0,1,435.23,34,5.48,5.48,0,0,1,438.69,33,9,9,0,0,1,442.4,33.59Z" fill="#231f20"/><path d="M158.06,23.94a7.05,7.05,0,0,1-.06,1,3.09,3.09,0,0,1-.14.68,1.15,1.15,0,0,1-.26.38.54.54,0,0,1-.34.12h-6.61V47.41a.59.59,0,0,1-.13.36,1,1,0,0,1-.45.27,4,4,0,0,1-.82.16,11.71,11.71,0,0,1-1.3.06,11.51,11.51,0,0,1-1.29-.06,4.06,4.06,0,0,1-.83-.16,1,1,0,0,1-.44-.27.53.53,0,0,1-.13-.36V26.12h-6.61a.51.51,0,0,1-.35-.12,1.14,1.14,0,0,1-.25-.38,3.7,3.7,0,0,1-.15-.68,9.23,9.23,0,0,1-.05-1,9.9,9.9,0,0,1,.05-1,3.65,3.65,0,0,1,.15-.69,1,1,0,0,1,.25-.37.56.56,0,0,1,.35-.1h18.61a.59.59,0,0,1,.34.1,1,1,0,0,1,.26.37,3.07,3.07,0,0,1,.14.69A7.57,7.57,0,0,1,158.06,23.94Z" fill="#231f20"/><path d="M186,47.41a.53.53,0,0,1-.13.36,1,1,0,0,1-.44.27,4.09,4.09,0,0,1-.82.16,11.2,11.2,0,0,1-1.28.06A12,12,0,0,1,182,48.2a3.83,3.83,0,0,1-.81-.16.94.94,0,0,1-.43-.27.53.53,0,0,1-.13-.36V36.73h-9.88V47.41a.53.53,0,0,1-.13.36.85.85,0,0,1-.42.27,4.24,4.24,0,0,1-.82.16,11.66,11.66,0,0,1-1.31.06,11.51,11.51,0,0,1-1.29-.06,4.06,4.06,0,0,1-.83-.16,1,1,0,0,1-.44-.27.53.53,0,0,1-.13-.36V22.47a.56.56,0,0,1,.13-.37,1,1,0,0,1,.44-.27,4.89,4.89,0,0,1,.83-.16,12.11,12.11,0,0,1,2.6,0,5.17,5.17,0,0,1,.82.16.85.85,0,0,1,.42.27.56.56,0,0,1,.13.37v9.69h9.88V22.47a.56.56,0,0,1,.13-.37.94.94,0,0,1,.43-.27,4.6,4.6,0,0,1,.81-.16,11.66,11.66,0,0,1,1.32-.07,10.9,10.9,0,0,1,1.28.07,5,5,0,0,1,.82.16,1,1,0,0,1,.44.27.56.56,0,0,1,.13.37Z" fill="#231f20"/><path d="M200.75,47.45a.61.61,0,0,1-.13.36,1,1,0,0,1-.42.25,3.16,3.16,0,0,1-.78.15c-.33,0-.74,0-1.25,0s-.91,0-1.24,0a3.16,3.16,0,0,1-.78-.15,1,1,0,0,1-.42-.25.55.55,0,0,1-.13-.36V29.28a.49.49,0,0,1,.13-.35.92.92,0,0,1,.42-.27,3.05,3.05,0,0,1,.78-.17,12.95,12.95,0,0,1,2.49,0,3.05,3.05,0,0,1,.78.17.92.92,0,0,1,.42.27.54.54,0,0,1,.13.35Z" fill="#231f20"/><path d="M232.13,46.26a2.06,2.06,0,0,1-.16.84,1.74,1.74,0,0,1-.44.61,1.65,1.65,0,0,1-.65.36,2.56,2.56,0,0,1-.77.11h-2.29a4.53,4.53,0,0,1-1.23-.14,2.38,2.38,0,0,1-1-.52,5,5,0,0,1-.85-1,18.88,18.88,0,0,1-.91-1.66l-6.58-12.35c-.38-.74-.76-1.53-1.16-2.38s-.75-1.68-1.06-2.48h0c.05,1,.09,1.95.12,2.93s0,2,0,3V47.38a.65.65,0,0,1-.11.37.86.86,0,0,1-.39.28,2.8,2.8,0,0,1-.74.17,10,10,0,0,1-1.21.06,9.59,9.59,0,0,1-1.18-.06,2.7,2.7,0,0,1-.74-.17.84.84,0,0,1-.37-.28.73.73,0,0,1-.1-.37V23.65a1.78,1.78,0,0,1,.57-1.44,2,2,0,0,1,1.37-.47h2.88a5.32,5.32,0,0,1,1.3.13,2.62,2.62,0,0,1,1,.43,3.83,3.83,0,0,1,.78.85,11,11,0,0,1,.76,1.33l5.14,9.66c.3.59.59,1.16.89,1.72s.57,1.14.84,1.7.54,1.11.8,1.66.51,1.09.76,1.64h0c0-1-.06-2-.09-3s0-2,0-3V22.53a.6.6,0,0,1,.11-.37,1.14,1.14,0,0,1,.41-.29,3.08,3.08,0,0,1,.76-.17c.31,0,.71-.05,1.21-.05s.84,0,1.16.05a2.54,2.54,0,0,1,.72.17.91.91,0,0,1,.36.29.66.66,0,0,1,.1.37Z" fill="#231f20"/><path d="M261.35,47.35a.64.64,0,0,1-.11.39.8.8,0,0,1-.43.29,3.7,3.7,0,0,1-.87.17,13.27,13.27,0,0,1-1.39.06,12.17,12.17,0,0,1-1.9-.1,1.87,1.87,0,0,1-.84-.31,1.53,1.53,0,0,1-.4-.48l-8-12.54V47.37a.6.6,0,0,1-.12.38.89.89,0,0,1-.43.28,3.33,3.33,0,0,1-.81.17,14.22,14.22,0,0,1-2.61,0,3.43,3.43,0,0,1-.82-.17.93.93,0,0,1-.44-.28.55.55,0,0,1-.13-.38V22.48a.57.57,0,0,1,.13-.38.92.92,0,0,1,.44-.27,5,5,0,0,1,.82-.16,12.2,12.2,0,0,1,2.61,0,4.8,4.8,0,0,1,.81.16.89.89,0,0,1,.43.27.62.62,0,0,1,.12.38V33.73l7.74-11.22a1.57,1.57,0,0,1,.34-.45,1.7,1.7,0,0,1,.54-.27,3.83,3.83,0,0,1,.83-.14c.34,0,.78,0,1.31,0a12.25,12.25,0,0,1,1.35.07,4.36,4.36,0,0,1,.85.17,1,1,0,0,1,.43.28.54.54,0,0,1,.12.36,1.51,1.51,0,0,1-.18.72c-.12.24-.35.63-.69,1.16l-7.25,9.5,7.9,11.93a9.5,9.5,0,0,1,.54,1.11A1.31,1.31,0,0,1,261.35,47.35Z" fill="#231f20"/><path d="M290.88,46.26a2.06,2.06,0,0,1-.16.84,1.74,1.74,0,0,1-.44.61,1.65,1.65,0,0,1-.65.36,2.56,2.56,0,0,1-.77.11h-2.29a4.53,4.53,0,0,1-1.23-.14,2.38,2.38,0,0,1-1-.52,5,5,0,0,1-.85-1c-.27-.43-.57-1-.91-1.66L276,32.49c-.38-.74-.76-1.53-1.16-2.38s-.75-1.68-1.06-2.48h-.05c.06,1,.1,1.95.13,2.93s0,2,0,3V47.38a.65.65,0,0,1-.11.37.81.81,0,0,1-.39.28,2.8,2.8,0,0,1-.74.17,10,10,0,0,1-1.21.06,9.59,9.59,0,0,1-1.18-.06,2.62,2.62,0,0,1-.73-.17.7.7,0,0,1-.37-.28.65.65,0,0,1-.11-.37V23.65a1.78,1.78,0,0,1,.57-1.44,2,2,0,0,1,1.37-.47h2.88a5.46,5.46,0,0,1,1.31.13,2.65,2.65,0,0,1,.95.43,3.4,3.4,0,0,1,.78.85,11,11,0,0,1,.76,1.33l5.14,9.66c.3.59.6,1.16.89,1.72s.57,1.14.84,1.7.54,1.11.8,1.66.51,1.09.76,1.64h0c0-1-.07-2-.09-3s0-2,0-3V22.53a.56.56,0,0,1,.13-.37,1,1,0,0,1,.4-.29,3.19,3.19,0,0,1,.76-.17c.31,0,.71-.05,1.2-.05s.85,0,1.17.05a2.54,2.54,0,0,1,.72.17.85.85,0,0,1,.36.29.66.66,0,0,1,.1.37Z" fill="#231f20"/><path d="M316.47,46a8.89,8.89,0,0,1-.05,1,2.5,2.5,0,0,1-.15.65A.75.75,0,0,1,316,48a.52.52,0,0,1-.33.11H302.41a1.51,1.51,0,0,1-1.6-1.7v-23a1.61,1.61,0,0,1,.47-1.29,1.67,1.67,0,0,1,1.13-.39H315.6a.57.57,0,0,1,.32.09.7.7,0,0,1,.24.37,2.29,2.29,0,0,1,.16.64,9.15,9.15,0,0,1,.05,1,8.64,8.64,0,0,1-.05,1,2.37,2.37,0,0,1-.16.65.78.78,0,0,1-.24.35.47.47,0,0,1-.32.12h-9.44v6.45h8a.51.51,0,0,1,.33.11.85.85,0,0,1,.26.34,2.63,2.63,0,0,1,.15.64,9.53,9.53,0,0,1,0,2,2.56,2.56,0,0,1-.15.62.85.85,0,0,1-.26.34.63.63,0,0,1-.33.09h-8v7.46h9.52a.59.59,0,0,1,.33.11.84.84,0,0,1,.26.36,2.23,2.23,0,0,1,.15.64A8.89,8.89,0,0,1,316.47,46Z" fill="#231f20"/><path d="M343,23.94a9.23,9.23,0,0,1,0,1,2.52,2.52,0,0,1-.16.68.9.9,0,0,1-.25.38.52.52,0,0,1-.34.12h-6.61V47.41a.59.59,0,0,1-.13.36A.88.88,0,0,1,335,48a4.21,4.21,0,0,1-.83.16,11.51,11.51,0,0,1-1.29.06,11.71,11.71,0,0,1-1.3-.06,4.09,4.09,0,0,1-.82-.16.88.88,0,0,1-.44-.27.54.54,0,0,1-.14-.36V26.12h-6.61a.55.55,0,0,1-.35-.12,1.13,1.13,0,0,1-.24-.38,2.56,2.56,0,0,1-.15-.68,7.05,7.05,0,0,1-.06-1,7.57,7.57,0,0,1,.06-1,2.55,2.55,0,0,1,.15-.69,1,1,0,0,1,.24-.37.6.6,0,0,1,.35-.1h18.61a.57.57,0,0,1,.34.1.81.81,0,0,1,.25.37,2.51,2.51,0,0,1,.16.69A9.9,9.9,0,0,1,343,23.94Z" fill="#231f20"/><path d="M200.72,24.17a2.61,2.61,0,1,1-2.61-2.61A2.61,2.61,0,0,1,200.72,24.17Z" fill="#231f20"/></svg>