<svg id="Layer_1" data-name="Layer 1" xmlns="http://www.w3.org/2000/svg" viewBox="0 0 363.87 46.2"><title>Final</title><path d="M303.67,15.64l-3.09,8.17q-1.86,5-3.78,10.43l-3.59-10.43-3-8.17h-3.42L285.21,38h2.69l.63-8.83c.42-5.62.63-8.87.63-9.73l3.39,9.73,2.95,8.33h2.56l3.12-8.33q1.86-5,3.62-9.93l.79,9.93.77,8.83h2.69l-2-22.38Z" fill="#231f20"/><path d="M322,23.24a8.07,8.07,0,0,0-4.23,1v2.23a7,7,0,0,1,4.06-1.21,3.25,3.25,0,0,1,2.56.86,3.72,3.72,0,0,1,.76,2.55v.73h-2.59a7.12,7.12,0,0,0-4.27,1.14,3.74,3.74,0,0,0-1.56,3.2,4,4,0,0,0,1.22,3,4.47,4.47,0,0,0,3.23,1.19c1.93,0,3.27-.61,4-1.84v1.83h2.2V28.7C327.33,25.06,325.53,23.24,322,23.24ZM325.1,33a2.9,2.9,0,0,1-.9,2.19,3.38,3.38,0,0,1-2.42.86,2.87,2.87,0,0,1-2.06-.67,2.25,2.25,0,0,1-.7-1.73,2.16,2.16,0,0,1,.9-1.77,4.33,4.33,0,0,1,2.7-.71h2.48Z" fill="#231f20"/><path d="M341.43,23.16a4.9,4.9,0,0,0-4.44,2.4v-2.4h-2.2V43.28H337V35.53a4.93,4.93,0,0,0,4.38,2.41,5.44,5.44,0,0,0,4.45-2.11,8.31,8.31,0,0,0,1.71-5.41,8.2,8.2,0,0,0-1.62-5.19A5.39,5.39,0,0,0,341.43,23.16Zm2.63,11.31a3.65,3.65,0,0,1-3,1.43,3.87,3.87,0,0,1-2.83-1.3,5.61,5.61,0,0,1-1.27-4,5.65,5.65,0,0,1,1.26-4.11,4.07,4.07,0,0,1,3-1.26,3.5,3.5,0,0,1,2.86,1.44,6,6,0,0,1,1.13,3.79A6.28,6.28,0,0,1,344.06,34.47Z" fill="#231f20"/><path d="M363.27,31.4a9.63,9.63,0,0,0-2.89-1.7l-1.19-.54a7.65,7.65,0,0,1-.86-.5,2.18,2.18,0,0,1-.8-.76,2,2,0,0,1-.2-.91,1.68,1.68,0,0,1,.68-1.37,2.91,2.91,0,0,1,1.83-.53,7.08,7.08,0,0,1,3.63.8V23.73a8.92,8.92,0,0,0-3.66-.63,5.33,5.33,0,0,0-3.41,1.08,3.49,3.49,0,0,0-1.37,2.9,3.38,3.38,0,0,0,1,2.56,7.81,7.81,0,0,0,2.64,1.58,12.11,12.11,0,0,1,2.55,1.3,1.89,1.89,0,0,1,.76,1.61,1.66,1.66,0,0,1-.69,1.41,3.31,3.31,0,0,1-2,.52,8,8,0,0,1-4.15-1.15v2.22a9.07,9.07,0,0,0,4.3.89A5.41,5.41,0,0,0,363,36.93a3.65,3.65,0,0,0,1.31-3A3.29,3.29,0,0,0,363.27,31.4Z" fill="#231f20"/><path d="M82.66,12.5a.86.86,0,0,0-.26-.36.51.51,0,0,0-.33-.11H63.7a.5.5,0,0,0-.34.11.94.94,0,0,0-.24.36,2.84,2.84,0,0,0-.16.68,10,10,0,0,0,0,1,9.45,9.45,0,0,0,0,1,2.87,2.87,0,0,0,.16.67,1,1,0,0,0,.24.37.5.5,0,0,0,.34.12h6.53v21a.55.55,0,0,0,.13.36.81.81,0,0,0,.44.26,3.83,3.83,0,0,0,.81.16,11.25,11.25,0,0,0,1.27.06,11.39,11.39,0,0,0,1.29-.06A4,4,0,0,0,75,38a.89.89,0,0,0,.44-.26.61.61,0,0,0,.13-.36v-21h6.52a.52.52,0,0,0,.33-.12.9.9,0,0,0,.26-.37,3,3,0,0,0,.14-.67,7,7,0,0,0,.06-1,7.42,7.42,0,0,0-.06-1A3,3,0,0,0,82.66,12.5Z" fill="#231f20"/><path d="M109.84,12.13A3.4,3.4,0,0,0,109,12a10.84,10.84,0,0,0-1.27-.07,11.28,11.28,0,0,0-1.3.07,3.19,3.19,0,0,0-.8.16.86.86,0,0,0-.43.27.57.57,0,0,0-.13.36v9.56H95.36V12.76a.56.56,0,0,0-.12-.36.79.79,0,0,0-.42-.27A3.39,3.39,0,0,0,94,12a11,11,0,0,0-1.29-.07,10.84,10.84,0,0,0-1.27.07,3.59,3.59,0,0,0-.83.16.83.83,0,0,0-.42.27.52.52,0,0,0-.13.36V37.37a.55.55,0,0,0,.13.36.82.82,0,0,0,.42.26,4.21,4.21,0,0,0,.83.16,11.13,11.13,0,0,0,1.27.06A11.27,11.27,0,0,0,94,38.15a4,4,0,0,0,.81-.16.78.78,0,0,0,.42-.26.6.6,0,0,0,.12-.36V26.83h9.75V37.37a.61.61,0,0,0,.13.36.85.85,0,0,0,.43.26,3.72,3.72,0,0,0,.8.16,11.58,11.58,0,0,0,1.3.06,11.13,11.13,0,0,0,1.27-.06,4,4,0,0,0,.8-.16.89.89,0,0,0,.44-.26.61.61,0,0,0,.13-.36V12.76a.57.57,0,0,0-.13-.36A.9.9,0,0,0,109.84,12.13Z" fill="#231f20"/><path d="M124.45,18.86a3.11,3.11,0,0,0-.77-.16,10.38,10.38,0,0,0-1.23-.06,10.26,10.26,0,0,0-1.23.06,3,3,0,0,0-.77.16,1,1,0,0,0-.42.27.55.55,0,0,0-.12.35V37.41a.55.55,0,0,0,.12.35,1,1,0,0,0,.42.25,3.07,3.07,0,0,0,.77.15c.32,0,.73.05,1.23.05s.9,0,1.23-.05a3.17,3.17,0,0,0,.77-.15,1.16,1.16,0,0,0,.42-.25.62.62,0,0,0,.12-.35V19.48a.62.62,0,0,0-.12-.35A1.17,1.17,0,0,0,124.45,18.86Z" fill="#231f20"/><path d="M155.51,12.17a2.5,2.5,0,0,0-.72-.18c-.31,0-.69,0-1.14,0s-.89,0-1.19,0a2.94,2.94,0,0,0-.75.18,1.11,1.11,0,0,0-.4.28.61.61,0,0,0-.12.37V25c0,.93,0,1.91,0,2.92s.05,2,.09,2.94h0c-.24-.54-.49-1.07-.75-1.61s-.51-1.08-.79-1.64-.54-1.12-.83-1.68-.58-1.12-.88-1.7L143,14.75a10.68,10.68,0,0,0-.75-1.32,3.72,3.72,0,0,0-.77-.84,3,3,0,0,0-.94-.43,5.29,5.29,0,0,0-1.29-.13h-2.84a2.06,2.06,0,0,0-1.36.47,1.78,1.78,0,0,0-.55,1.43V37.34a.66.66,0,0,0,.1.37.82.82,0,0,0,.36.28,3.22,3.22,0,0,0,.73.16,9.35,9.35,0,0,0,1.16.06,9.54,9.54,0,0,0,1.19-.06,3.33,3.33,0,0,0,.74-.16.84.84,0,0,0,.38-.28.67.67,0,0,0,.11-.37V23.71c0-1,0-2,0-3s-.07-1.92-.12-2.89h0c.31.79.66,1.61,1,2.45s.77,1.62,1.15,2.34l6.48,12.19a16.88,16.88,0,0,0,.91,1.64,4.92,4.92,0,0,0,.83,1,2.52,2.52,0,0,0,1,.51,4.4,4.4,0,0,0,1.22.14H154a2.45,2.45,0,0,0,.76-.11,1.53,1.53,0,0,0,.64-.35,1.63,1.63,0,0,0,.44-.61,1.94,1.94,0,0,0,.16-.82V12.82a.66.66,0,0,0-.1-.37A1,1,0,0,0,155.51,12.17Z" fill="#231f20"/><path d="M184.18,35.77,176.38,24l7.15-9.37c.34-.53.56-.91.68-1.15a1.47,1.47,0,0,0,.18-.71.54.54,0,0,0-.12-.36.84.84,0,0,0-.43-.27A3.08,3.08,0,0,0,183,12a12.05,12.05,0,0,0-1.34-.07c-.51,0-.95,0-1.28,0a4,4,0,0,0-.83.14,1.59,1.59,0,0,0-.52.27,1.42,1.42,0,0,0-.35.44l-7.63,11.07V12.77a.57.57,0,0,0-.12-.37.79.79,0,0,0-.42-.27,3.39,3.39,0,0,0-.81-.16,10.82,10.82,0,0,0-1.29-.07,11,11,0,0,0-1.28.07,3.39,3.39,0,0,0-.81.16.82.82,0,0,0-.43.27.52.52,0,0,0-.13.37V37.33a.57.57,0,0,0,.13.38,1,1,0,0,0,.43.28,4,4,0,0,0,.81.16,11.32,11.32,0,0,0,1.28.06,11.15,11.15,0,0,0,1.29-.06,4,4,0,0,0,.81-.16.93.93,0,0,0,.42-.28.62.62,0,0,0,.12-.38V25l7.88,12.37a1.38,1.38,0,0,0,.39.48,1.9,1.9,0,0,0,.83.3,11.79,11.79,0,0,0,1.88.1,12.65,12.65,0,0,0,1.36-.06,4.28,4.28,0,0,0,.86-.16.92.92,0,0,0,.43-.29.74.74,0,0,0,.11-.39,1.48,1.48,0,0,0-.09-.44A10.9,10.9,0,0,0,184.18,35.77Z" fill="#231f20"/><path d="M213.49,12.17a2.5,2.5,0,0,0-.72-.18c-.31,0-.69,0-1.15,0s-.88,0-1.19,0a2.86,2.86,0,0,0-.74.18,1.11,1.11,0,0,0-.4.28.56.56,0,0,0-.13.37V25c0,.93,0,1.91,0,2.92s.05,2,.09,2.94h0c-.25-.54-.49-1.07-.75-1.61s-.51-1.08-.79-1.64-.54-1.12-.83-1.68-.58-1.12-.88-1.7L201,14.75a10.68,10.68,0,0,0-.75-1.32,3.5,3.5,0,0,0-.77-.84,3,3,0,0,0-.94-.43A5.29,5.29,0,0,0,197.2,12h-2.84a2.06,2.06,0,0,0-1.36.47,1.78,1.78,0,0,0-.55,1.43V37.34a.66.66,0,0,0,.1.37.82.82,0,0,0,.36.28,3.1,3.1,0,0,0,.73.16,9.35,9.35,0,0,0,1.16.06,9.54,9.54,0,0,0,1.19-.06,3.1,3.1,0,0,0,.73-.16.87.87,0,0,0,.39-.28.67.67,0,0,0,.11-.37V23.71c0-1,0-2,0-3s-.06-1.92-.12-2.89h0c.31.79.66,1.61,1.05,2.45s.77,1.62,1.15,2.34l6.49,12.19a17.08,17.08,0,0,0,.9,1.64,4.37,4.37,0,0,0,.84,1,2.41,2.41,0,0,0,.94.51,4.4,4.4,0,0,0,1.22.14H212a2.43,2.43,0,0,0,.75-.11,1.53,1.53,0,0,0,.64-.35,1.63,1.63,0,0,0,.44-.61,1.94,1.94,0,0,0,.16-.82V12.82a.76.76,0,0,0-.1-.37A1,1,0,0,0,213.49,12.17Z" fill="#231f20"/><path d="M239,34.41a.91.91,0,0,0-.26-.35.52.52,0,0,0-.33-.11H229V26.59h7.88a.56.56,0,0,0,.33-.1.91.91,0,0,0,.26-.33,3.19,3.19,0,0,0,.15-.61,11.66,11.66,0,0,0,0-1.93,3,3,0,0,0-.15-.62.87.87,0,0,0-.26-.34.52.52,0,0,0-.33-.12H229V16.18h9.31a.47.47,0,0,0,.32-.12.74.74,0,0,0,.24-.34,2.32,2.32,0,0,0,.15-.64,8.44,8.44,0,0,0,.05-1,9.09,9.09,0,0,0-.05-1,2.24,2.24,0,0,0-.15-.63.71.71,0,0,0-.24-.36.51.51,0,0,0-.32-.1h-13a1.65,1.65,0,0,0-1.11.39,1.62,1.62,0,0,0-.46,1.28V36.42a1.62,1.62,0,0,0,.46,1.28,1.65,1.65,0,0,0,1.11.39h13.1a.58.58,0,0,0,.33-.1,1,1,0,0,0,.26-.36,3.38,3.38,0,0,0,.15-.64,8.7,8.7,0,0,0,0-1,9,9,0,0,0,0-1A3.25,3.25,0,0,0,239,34.41Z" fill="#231f20"/><path d="M265.13,12.5a.85.85,0,0,0-.25-.36.51.51,0,0,0-.33-.11H246.18a.54.54,0,0,0-.35.11.83.83,0,0,0-.23.36,2.15,2.15,0,0,0-.15.68,7.42,7.42,0,0,0-.06,1,7,7,0,0,0,.06,1,2.15,2.15,0,0,0,.15.67.87.87,0,0,0,.23.37.55.55,0,0,0,.35.12h6.52v21a.56.56,0,0,0,.14.36.81.81,0,0,0,.43.26,4,4,0,0,0,.82.16,11.13,11.13,0,0,0,1.27.06,11.32,11.32,0,0,0,1.28-.06,4,4,0,0,0,.82-.16.89.89,0,0,0,.44-.26.6.6,0,0,0,.12-.36v-21h6.53a.52.52,0,0,0,.33-.12.89.89,0,0,0,.25-.37,2.47,2.47,0,0,0,.15-.67,7,7,0,0,0,.06-1,7.42,7.42,0,0,0-.06-1A2.47,2.47,0,0,0,265.13,12.5Z" fill="#231f20"/><path d="M122.39,17a2.59,2.59,0,1,0-2.58-2.58A2.58,2.58,0,0,0,122.39,17Z" fill="#231f20"/><polygon points="25.56 0 25.55 0 21.77 0 21.76 0 0 46.2 3.72 46.2 23.66 3.99 43.66 46.2 47.44 46.2 25.56 0" fill="#f15822"/><path d="M9.28,46.2,23.7,40.72,38.13,46.2l-14.43-31ZM25,37.42l-1.25-.48h0l-1.25.48-6.3,2.39L23.7,23.55l7.55,16.22h0v0Z" fill="#f15822"/></svg>